<svg width="131" height="21" viewBox="0 0 131 21" fill="none" xmlns="http://www.w3.org/2000/svg">
<path d="M0.912 20V19.088C1.536 19.072 2.032 19.024 2.4 18.944C2.784 18.864 3.072 18.728 3.264 18.536C3.472 18.344 3.608 18.072 3.672 17.72C3.752 17.368 3.792 16.912 3.792 16.352V5.168C3.792 4.608 3.76 4.16 3.696 3.824C3.648 3.472 3.536 3.2 3.36 3.008C3.2 2.8 2.96 2.664 2.64 2.6C2.32 2.52 1.904 2.464 1.392 2.432V1.52H8.568C10.728 1.52 12.408 1.904 13.608 2.672C14.808 3.44 15.408 4.52 15.408 5.912C15.408 6.968 15.072 7.832 14.4 8.504C13.744 9.176 12.696 9.728 11.256 10.16V10.256C11.752 10.304 12.184 10.36 12.552 10.424C12.92 10.488 13.248 10.568 13.536 10.664C13.824 10.744 14.088 10.848 14.328 10.976C14.584 11.104 14.832 11.248 15.072 11.408C16.496 12.416 17.208 13.68 17.208 15.2C17.208 16.048 16.968 16.84 16.488 17.576C16.024 18.296 15.368 18.864 14.52 19.28C14.248 19.424 13.968 19.544 13.68 19.64C13.392 19.72 13.056 19.792 12.672 19.856C12.288 19.904 11.84 19.944 11.328 19.976C10.832 19.992 10.24 20 9.552 20H0.912ZM9.624 18.968C12.52 18.968 13.968 17.728 13.968 15.248C13.968 13.44 13.224 12.176 11.736 11.456C11.48 11.344 11.232 11.248 10.992 11.168C10.752 11.088 10.472 11.032 10.152 11C9.832 10.952 9.448 10.92 9 10.904C8.568 10.888 8.032 10.88 7.392 10.88H6.312V16.232C6.312 17.208 6.568 17.912 7.08 18.344C7.592 18.76 8.44 18.968 9.624 18.968ZM7.656 9.68C8.152 9.68 8.568 9.672 8.904 9.656C9.24 9.64 9.528 9.616 9.768 9.584C10.008 9.536 10.216 9.48 10.392 9.416C10.584 9.336 10.776 9.232 10.968 9.104C11.48 8.784 11.84 8.4 12.048 7.952C12.272 7.504 12.384 6.92 12.384 6.2C12.384 4.936 12.072 4.032 11.448 3.488C10.84 2.928 9.88 2.648 8.568 2.648H6.72C6.448 2.648 6.312 2.784 6.312 3.056V9.68H7.656ZM29.8058 13.304H23.3978C23.1258 13.96 22.8938 14.544 22.7018 15.056C22.5098 15.552 22.3498 15.984 22.2218 16.352C22.1098 16.72 22.0298 17.032 21.9818 17.288C21.9338 17.544 21.9098 17.752 21.9098 17.912C21.9098 18.36 22.0538 18.672 22.3418 18.848C22.6298 19.008 23.1098 19.088 23.7818 19.088V20H17.9497V19.088C18.3178 19.04 18.6298 18.976 18.8857 18.896C19.1578 18.816 19.3898 18.704 19.5818 18.56C19.7898 18.416 19.9658 18.232 20.1098 18.008C20.2698 17.768 20.4218 17.48 20.5658 17.144L26.8058 1.52H27.8378L33.2858 15.056C33.6538 15.952 33.9738 16.672 34.2458 17.216C34.5178 17.744 34.7818 18.144 35.0378 18.416C35.2938 18.688 35.5658 18.864 35.8538 18.944C36.1578 19.024 36.5178 19.064 36.9338 19.064V20H29.1098V19.064C29.9578 19.064 30.5418 18.984 30.8618 18.824C31.1818 18.664 31.3418 18.4 31.3418 18.032C31.3418 17.872 31.3338 17.728 31.3177 17.6C31.3018 17.456 31.2698 17.304 31.2218 17.144C31.1898 16.984 31.1338 16.808 31.0538 16.616C30.9898 16.408 30.9018 16.168 30.7898 15.896L29.8058 13.304ZM23.8778 12.104H29.3498L26.6858 5.024L23.8778 12.104ZM52.4248 6.152C52.4248 7.432 52.0408 8.496 51.2728 9.344C50.5048 10.192 49.2808 10.76 47.6008 11.048L52.9048 17.432C53.3368 17.96 53.8088 18.344 54.3208 18.584C54.8488 18.808 55.4728 18.976 56.1928 19.088V20H51.5608L45.6808 12.464C45.4728 12.192 45.2728 11.976 45.0808 11.816C44.9048 11.656 44.7128 11.536 44.5048 11.456C44.3128 11.36 44.0808 11.304 43.8088 11.288C43.5528 11.256 43.2408 11.24 42.8728 11.24V16.232C42.8728 16.824 42.9048 17.312 42.9688 17.696C43.0488 18.064 43.2008 18.352 43.4248 18.56C43.6648 18.768 44.0008 18.912 44.4328 18.992C44.8808 19.056 45.4648 19.088 46.1848 19.088V20H37.7128V19.088C38.2728 19.072 38.7208 19.024 39.0568 18.944C39.4088 18.864 39.6808 18.728 39.8728 18.536C40.0648 18.344 40.1928 18.072 40.2568 17.72C40.3208 17.368 40.3528 16.912 40.3528 16.352V5.168C40.3528 4.608 40.3208 4.16 40.2568 3.824C40.2088 3.472 40.0968 3.2 39.9208 3.008C39.7608 2.8 39.5208 2.664 39.2008 2.6C38.8808 2.52 38.4648 2.464 37.9528 2.432V1.52H45.4888C47.6968 1.52 49.4008 1.928 50.6008 2.744C51.8168 3.56 52.4248 4.696 52.4248 6.152ZM42.8728 10.04H44.5768C46.1768 10.04 47.3608 9.752 48.1288 9.176C48.9128 8.584 49.3048 7.616 49.3048 6.272C49.3048 4.976 48.9928 4.048 48.3688 3.488C47.7608 2.928 46.8008 2.648 45.4888 2.648H43.2808C43.0088 2.648 42.8728 2.784 42.8728 3.056V10.04ZM56.4589 20V19.088C57.0829 19.072 57.5789 19.024 57.9469 18.944C58.3309 18.864 58.6189 18.728 58.8109 18.536C59.0189 18.344 59.1549 18.072 59.2189 17.72C59.2989 17.368 59.3389 16.912 59.3389 16.352V5.168C59.3389 4.608 59.3069 4.16 59.2429 3.824C59.1949 3.472 59.0829 3.2 58.9069 3.008C58.7469 2.8 58.5069 2.664 58.1869 2.6C57.8669 2.52 57.4509 2.464 56.9389 2.432V1.52H64.1149C66.2749 1.52 67.9549 1.904 69.1549 2.672C70.3549 3.44 70.9549 4.52 70.9549 5.912C70.9549 6.968 70.6189 7.832 69.9469 8.504C69.2909 9.176 68.2429 9.728 66.8029 10.16V10.256C67.2989 10.304 67.7309 10.36 68.0989 10.424C68.4669 10.488 68.7949 10.568 69.0829 10.664C69.3709 10.744 69.6349 10.848 69.8749 10.976C70.1309 11.104 70.3789 11.248 70.6189 11.408C72.0429 12.416 72.7549 13.68 72.7549 15.2C72.7549 16.048 72.5149 16.84 72.0349 17.576C71.5709 18.296 70.9149 18.864 70.0669 19.28C69.7949 19.424 69.5149 19.544 69.2269 19.64C68.9389 19.72 68.6029 19.792 68.2189 19.856C67.8349 19.904 67.3869 19.944 66.8749 19.976C66.3789 19.992 65.7869 20 65.0989 20H56.4589ZM65.1709 18.968C68.0669 18.968 69.5149 17.728 69.5149 15.248C69.5149 13.44 68.7709 12.176 67.2829 11.456C67.0269 11.344 66.7789 11.248 66.5389 11.168C66.2989 11.088 66.0189 11.032 65.6989 11C65.3789 10.952 64.9949 10.92 64.5469 10.904C64.1149 10.888 63.5789 10.88 62.9389 10.88H61.8589V16.232C61.8589 17.208 62.1149 17.912 62.6269 18.344C63.1389 18.76 63.9869 18.968 65.1709 18.968ZM63.2029 9.68C63.6989 9.68 64.1149 9.672 64.4509 9.656C64.7869 9.64 65.0749 9.616 65.3149 9.584C65.5549 9.536 65.7629 9.48 65.9389 9.416C66.1309 9.336 66.3229 9.232 66.5149 9.104C67.0269 8.784 67.3869 8.4 67.5949 7.952C67.8189 7.504 67.9309 6.92 67.9309 6.2C67.9309 4.936 67.6189 4.032 66.9949 3.488C66.3869 2.928 65.4269 2.648 64.1149 2.648H62.2669C61.9949 2.648 61.8589 2.784 61.8589 3.056V9.68H63.2029ZM80.0447 9.848C80.9087 9.848 81.6287 9.8 82.2047 9.704C82.7967 9.592 83.2607 9.424 83.5967 9.2C83.9487 8.976 84.1967 8.688 84.3407 8.336C84.5007 7.984 84.5807 7.568 84.5807 7.088H85.4207V13.64H84.5807C84.5807 13.16 84.5087 12.744 84.3647 12.392C84.2367 12.04 83.9967 11.752 83.6447 11.528C83.3087 11.288 82.8447 11.112 82.2527 11C81.6767 10.872 80.9407 10.808 80.0447 10.808V16.232C80.0447 16.76 80.1087 17.2 80.2367 17.552C80.3647 17.888 80.5807 18.168 80.8847 18.392C81.2047 18.6 81.6207 18.752 82.1327 18.848C82.6447 18.928 83.2767 18.968 84.0287 18.968C84.8767 18.968 85.5967 18.912 86.1887 18.8C86.7807 18.672 87.2767 18.464 87.6767 18.176C88.0767 17.888 88.3967 17.512 88.6367 17.048C88.8767 16.568 89.0767 15.976 89.2367 15.272H90.1487L89.7887 20H74.8847V19.088C75.4447 19.072 75.8927 19.024 76.2287 18.944C76.5807 18.864 76.8527 18.728 77.0447 18.536C77.2367 18.344 77.3647 18.072 77.4287 17.72C77.4927 17.368 77.5247 16.912 77.5247 16.352V5.168C77.5247 4.608 77.4927 4.16 77.4287 3.824C77.3807 3.472 77.2687 3.2 77.0927 3.008C76.9327 2.8 76.6927 2.664 76.3727 2.6C76.0527 2.52 75.6367 2.464 75.1247 2.432V1.52H88.9967L89.2127 5.744H88.3727C88.2767 5.104 88.1167 4.584 87.8927 4.184C87.6847 3.768 87.3887 3.44 87.0047 3.2C86.6367 2.96 86.1647 2.792 85.5887 2.696C85.0127 2.6 84.3167 2.552 83.5007 2.552H80.4527C80.1807 2.552 80.0447 2.688 80.0447 2.96V9.848ZM107.011 6.152C107.011 7.432 106.627 8.496 105.859 9.344C105.091 10.192 103.867 10.76 102.187 11.048L107.491 17.432C107.923 17.96 108.395 18.344 108.907 18.584C109.435 18.808 110.059 18.976 110.779 19.088V20H106.147L100.267 12.464C100.059 12.192 99.8588 11.976 99.6668 11.816C99.4908 11.656 99.2988 11.536 99.0908 11.456C98.8988 11.36 98.6668 11.304 98.3948 11.288C98.1388 11.256 97.8268 11.24 97.4588 11.24V16.232C97.4588 16.824 97.4908 17.312 97.5547 17.696C97.6348 18.064 97.7868 18.352 98.0108 18.56C98.2508 18.768 98.5868 18.912 99.0188 18.992C99.4668 19.056 100.051 19.088 100.771 19.088V20H92.2988V19.088C92.8588 19.072 93.3068 19.024 93.6428 18.944C93.9948 18.864 94.2668 18.728 94.4588 18.536C94.6508 18.344 94.7788 18.072 94.8428 17.72C94.9068 17.368 94.9388 16.912 94.9388 16.352V5.168C94.9388 4.608 94.9068 4.16 94.8428 3.824C94.7948 3.472 94.6828 3.2 94.5068 3.008C94.3468 2.8 94.1068 2.664 93.7868 2.6C93.4668 2.52 93.0508 2.464 92.5388 2.432V1.52H100.075C102.283 1.52 103.987 1.928 105.187 2.744C106.403 3.56 107.011 4.696 107.011 6.152ZM97.4588 10.04H99.1628C100.763 10.04 101.947 9.752 102.715 9.176C103.499 8.584 103.891 7.616 103.891 6.272C103.891 4.976 103.579 4.048 102.955 3.488C102.347 2.928 101.387 2.648 100.075 2.648H97.8668C97.5948 2.648 97.4588 2.784 97.4588 3.056V10.04ZM111.317 5.936C112.053 5.376 112.573 4.848 112.877 4.352C113.197 3.84 113.357 3.28 113.357 2.672C113.149 2.8 112.909 2.864 112.637 2.864C112.269 2.864 111.965 2.744 111.725 2.504C111.501 2.248 111.389 1.928 111.389 1.544C111.389 1.112 111.533 0.759999 111.821 0.487999C112.125 0.215999 112.525 0.079999 113.021 0.079999C114.157 0.079999 114.725 0.831999 114.725 2.336C114.725 2.752 114.677 3.128 114.581 3.464C114.485 3.8 114.325 4.136 114.101 4.472C113.893 4.792 113.605 5.128 113.237 5.48C112.869 5.816 112.413 6.184 111.869 6.584L111.317 5.936ZM117.267 14.36H118.155C118.267 15.08 118.475 15.728 118.779 16.304C119.099 16.88 119.491 17.368 119.955 17.768C120.435 18.168 120.979 18.48 121.587 18.704C122.211 18.912 122.883 19.016 123.603 19.016C124.787 19.016 125.723 18.736 126.411 18.176C127.099 17.616 127.443 16.856 127.443 15.896C127.443 15.496 127.371 15.128 127.227 14.792C127.099 14.456 126.875 14.136 126.555 13.832C126.235 13.512 125.803 13.2 125.259 12.896C124.731 12.592 124.059 12.264 123.243 11.912C122.251 11.48 121.419 11.064 120.747 10.664C120.075 10.264 119.539 9.848 119.139 9.416C118.739 8.984 118.451 8.528 118.275 8.048C118.115 7.552 118.035 6.992 118.035 6.368C118.035 5.632 118.163 4.952 118.419 4.328C118.691 3.704 119.067 3.168 119.547 2.72C120.027 2.256 120.595 1.904 121.251 1.664C121.907 1.408 122.627 1.28 123.411 1.28C124.115 1.28 124.771 1.392 125.379 1.616C125.987 1.84 126.603 2.2 127.227 2.696L127.851 1.616H128.403L128.667 6.392H127.779C127.395 5.08 126.835 4.104 126.099 3.464C125.379 2.824 124.507 2.504 123.483 2.504C122.507 2.504 121.731 2.744 121.155 3.224C120.579 3.704 120.291 4.352 120.291 5.168C120.291 5.552 120.355 5.904 120.483 6.224C120.611 6.528 120.819 6.824 121.107 7.112C121.395 7.384 121.771 7.664 122.235 7.952C122.699 8.224 123.275 8.512 123.963 8.816C125.147 9.344 126.131 9.84 126.915 10.304C127.699 10.752 128.323 11.208 128.787 11.672C129.251 12.12 129.579 12.6 129.771 13.112C129.963 13.608 130.059 14.168 130.059 14.792C130.059 15.592 129.899 16.328 129.579 17C129.259 17.672 128.811 18.248 128.235 18.728C127.659 19.208 126.971 19.584 126.171 19.856C125.371 20.112 124.491 20.24 123.531 20.24C122.619 20.24 121.795 20.112 121.059 19.856C120.339 19.6 119.603 19.168 118.851 18.56L118.179 19.736H117.627L117.267 14.36Z" fill="black"/>
</svg>
